<svg xmlns="http://www.w3.org/2000/svg" viewBox="0 0 120 120">
  <defs>
    <linearGradient id="bg" x1="14" y1="10" x2="106" y2="112" gradientUnits="userSpaceOnUse">
      <stop stop-color="#FFF8E8"/>
      <stop offset="1" stop-color="#D7F4E7"/>
    </linearGradient>
  </defs>
  <rect width="120" height="120" rx="34" fill="url(#bg)"/>
  <circle cx="60" cy="65" r="34" fill="#FFD8AA"/>
  <path d="M31 57c5-19 19-31 35-30 14 1 25 10 29 26-19 6-42 7-64 4Z" fill="#315B4E"/>
  <path d="M42 34c11-9 31-8 42 4-9 6-29 7-42-4Z" fill="#6BBF9B"/>
  <circle cx="47" cy="63" r="3.4" fill="#2F2A28"/>
  <circle cx="73" cy="63" r="3.4" fill="#2F2A28"/>
  <path d="M50 77c6 7 15 7 21 0" fill="none" stroke="#7C3F2B" stroke-width="4" stroke-linecap="round"/>
  <circle cx="39" cy="72" r="5" fill="#FFB7A7" opacity=".55"/>
  <circle cx="81" cy="72" r="5" fill="#FFB7A7" opacity=".55"/>
</svg>
